<svg width="201" height="31" viewBox="0 0 201 31" fill="none" xmlns="http://www.w3.org/2000/svg">
<path d="M200.18 27.5668C199.821 27.7465 199.372 27.939 198.833 28.1443C198.294 28.3496 197.678 28.5292 196.985 28.6832C196.318 28.8372 195.625 28.9141 194.906 28.9141C194.034 28.9141 193.225 28.7602 192.481 28.4522C191.737 28.1443 191.134 27.6567 190.672 26.9894C190.236 26.2965 190.017 25.4111 190.017 24.3333V11.7455H187.361V8.4735H190.017V1.85242H194.252V8.4735H198.64V11.7455H194.252V22.986C194.303 23.6789 194.521 24.1921 194.906 24.5258C195.317 24.8594 195.817 25.0262 196.408 25.0262C196.998 25.0262 197.562 24.9235 198.101 24.7182C198.64 24.5129 199.038 24.3461 199.295 24.2178L200.18 27.5668Z" fill="#0422B3"/>
<path d="M175.395 28.9909C173.83 28.9909 172.405 28.7215 171.122 28.1825C169.865 27.618 168.774 26.8609 167.85 25.9114C166.926 24.9362 166.208 23.8326 165.695 22.6008C165.207 21.3433 164.963 20.0088 164.963 18.5974C164.963 16.6983 165.399 14.966 166.272 13.4006C167.145 11.8095 168.363 10.5392 169.929 9.58963C171.494 8.61443 173.329 8.12683 175.434 8.12683C177.538 8.12683 179.347 8.61443 180.861 9.58963C182.401 10.5392 183.595 11.7967 184.441 13.3621C185.288 14.9275 185.712 16.6085 185.712 18.4049C185.712 18.7129 185.699 19.008 185.673 19.2903C185.648 19.5469 185.622 19.765 185.596 19.9447H169.467C169.544 21.1252 169.865 22.1645 170.429 23.0628C171.02 23.9353 171.764 24.6282 172.662 25.1415C173.56 25.6291 174.523 25.8729 175.549 25.8729C176.678 25.8729 177.743 25.5906 178.744 25.026C179.771 24.4614 180.464 23.7172 180.823 22.7933L184.441 23.8326C184.005 24.8078 183.338 25.6932 182.44 26.4888C181.567 27.2587 180.528 27.8746 179.322 28.3365C178.115 28.7728 176.807 28.9909 175.395 28.9909ZM169.352 17.1346H181.516C181.439 15.9797 181.105 14.966 180.515 14.0935C179.95 13.1953 179.219 12.5024 178.321 12.0148C177.448 11.5015 176.473 11.2449 175.395 11.2449C174.343 11.2449 173.368 11.5015 172.47 12.0148C171.597 12.5024 170.878 13.1953 170.314 14.0935C169.749 14.966 169.429 15.9797 169.352 17.1346Z" fill="#0422B3"/>
<path d="M141.95 9.28167V28.606H137.639V1.27478H141.18L156.655 21.0225V1.31327H161.005V28.606H157.233L141.95 9.28167Z" fill="#0422B3"/>
<path d="M124.15 30.1458V26.0269H126.614V4.23892H124.15V0.119995H131.387V30.1458H124.15Z" fill="#0422B3"/>
<path d="M106.794 1.27478H112.184L122.231 28.606H116.764L114.224 21.7924H104.677L102.175 28.606H96.7087L106.794 1.27478ZM113.261 18.0584L109.489 6.77951L105.563 18.0584H113.261Z" fill="#0422B3"/>
<path d="M87.4922 30.1458V0.119995H94.6907V4.23892H92.2655V26.0269H94.6907V30.1458H87.4922Z" fill="#0422B3"/>
<path d="M73.1064 28.9909C71.5409 28.9909 70.1166 28.7215 68.8335 28.1825C67.576 27.618 66.4853 26.8609 65.5614 25.9114C64.6375 24.9362 63.919 23.8326 63.4057 22.6008C62.9181 21.3433 62.6743 20.0088 62.6743 18.5974C62.6743 16.6983 63.1106 14.966 63.9831 13.4006C64.8557 11.8095 66.0747 10.5392 67.6401 9.58963C69.2056 8.61443 71.0405 8.12683 73.1449 8.12683C75.2492 8.12683 77.0585 8.61443 78.5726 9.58963C80.1124 10.5392 81.3057 11.7967 82.1526 13.3621C82.9995 14.9275 83.4229 16.6085 83.4229 18.4049C83.4229 18.7129 83.4101 19.008 83.3844 19.2903C83.3588 19.5469 83.3331 19.765 83.3074 19.9447H67.1782C67.2552 21.1252 67.576 22.1645 68.1406 23.0628C68.7308 23.9353 69.475 24.6282 70.3732 25.1415C71.2715 25.6291 72.2338 25.8729 73.2603 25.8729C74.3895 25.8729 75.4545 25.5906 76.4554 25.026C77.4819 24.4614 78.1748 23.7172 78.5341 22.7933L82.1526 23.8326C81.7163 24.8078 81.0491 25.6932 80.1509 26.4888C79.2783 27.2587 78.239 27.8746 77.0328 28.3365C75.8266 28.7728 74.5178 28.9909 73.1064 28.9909ZM67.0627 17.1346H79.227C79.15 15.9797 78.8164 14.966 78.2261 14.0935C77.6616 13.1953 76.9302 12.5024 76.032 12.0148C75.1594 11.5015 74.1842 11.2449 73.1064 11.2449C72.0542 11.2449 71.079 11.5015 70.1808 12.0148C69.3082 12.5024 68.5897 13.1953 68.0251 14.0935C67.4605 14.966 67.1397 15.9797 67.0627 17.1346Z" fill="#0422B3"/>
<path d="M57.9581 28.606L51.491 19.3288L48.1805 22.4853V28.606H43.946V0.504883H48.1805V18.2124L57.4962 8.51177H62.0385L54.2241 16.9421L62.462 28.606H57.9581Z" fill="#0422B3"/>
<path d="M20.7546 22.7163C20.7546 21.4331 21.1139 20.3168 21.8325 19.3673C22.5767 18.3921 23.5904 17.6478 24.8736 17.1346C26.1567 16.5957 27.6452 16.3262 29.3389 16.3262C30.2372 16.3262 31.1482 16.3903 32.0721 16.5187C33.0216 16.647 33.8556 16.8523 34.5742 17.1346V15.8643C34.5742 14.4528 34.1508 13.3493 33.3039 12.5537C32.457 11.7582 31.238 11.3604 29.6469 11.3604C28.5177 11.3604 27.4527 11.5657 26.4518 11.9763C25.451 12.3612 24.386 12.913 23.2568 13.6316L21.8325 10.783C23.167 9.88475 24.5015 9.21751 25.8359 8.78124C27.1961 8.34497 28.6204 8.12683 30.1088 8.12683C32.8035 8.12683 34.9207 8.8454 36.4605 10.2825C38.0259 11.694 38.8086 13.7086 38.8086 16.3262V23.8326C38.8086 24.3202 38.8856 24.6667 39.0396 24.872C39.2192 25.0773 39.5144 25.1928 39.925 25.2185V28.606C39.54 28.683 39.1936 28.7343 38.8856 28.76C38.5777 28.7856 38.321 28.7985 38.1157 28.7985C37.2175 28.7985 36.5374 28.5803 36.0755 28.144C35.6136 27.7078 35.3441 27.1945 35.2671 26.6043L35.1516 25.4494C34.2791 26.5786 33.1627 27.4511 31.8026 28.0671C30.4425 28.683 29.0695 28.9909 27.6837 28.9909C26.3492 28.9909 25.1559 28.7215 24.1037 28.1825C23.0515 27.618 22.2303 26.8609 21.64 25.9114C21.0498 24.9618 20.7546 23.8968 20.7546 22.7163ZM33.5734 23.9481C33.8813 23.6145 34.1251 23.2809 34.3048 22.9473C34.4844 22.6136 34.5742 22.3185 34.5742 22.0619V19.7522C33.8556 19.4699 33.0986 19.2646 32.303 19.1363C31.5075 18.9823 30.7248 18.9053 29.9549 18.9053C28.4151 18.9053 27.1576 19.2133 26.1824 19.8292C25.2328 20.4451 24.7581 21.292 24.7581 22.3698C24.7581 22.9601 24.9121 23.5247 25.22 24.0636C25.5536 24.6025 26.0156 25.0388 26.6058 25.3724C27.2217 25.706 27.9788 25.8729 28.877 25.8729C29.8009 25.8729 30.6863 25.6932 31.5331 25.3339C32.38 24.9746 33.0601 24.5127 33.5734 23.9481Z" fill="#0422B3"/>
<path d="M22.7378 5.08575H13.6531V28.606H9.30316V5.08575H0.179932V1.27478H22.7378V5.08575Z" fill="#0422B3"/>
</svg>
